<svg version="1" xmlns="http://www.w3.org/2000/svg" width="441.333" height="441.333" viewBox="0 0 331.000000 331.000000"><path d="M25.7 24.8L1 49.5v232l24.8 24.8L50.5 331h230l24.8-24.8 24.7-24.7v-232l-24.8-24.8L280.5 0h-230L25.7 24.8zm270 9.4L317 55.5v220l-21.2 21.2-21.3 21.3h-218l-21.2-21.2L14 275.5v-220l21.2-21.2L56.5 13h218l21.2 21.2z"/><path d="M152.3 26.4c-10.4 3.4-20.4 12.3-25.1 22.4-2.5 5.3-2.7 6.6-2.7 19.7 0 13.8.1 14.2 3.2 20.6 4 8 12 15.9 20 19.7 5.2 2.4 6.9 2.7 16.8 2.7 10.3 0 11.4-.2 17.5-3.1 8.2-3.9 15.2-10.9 19.3-19.4 3.1-6.3 3.2-6.7 3.2-20.5 0-13.6-.1-14.2-3.1-20.5-3.9-8.1-10.9-15.2-19.3-19.3-5.7-2.8-7.6-3.2-16-3.4-6.1-.2-11.1.2-13.8 1.1zM55.5 27.3C45 30.8 34.9 39.7 30.2 49.8l-2.7 5.7v114l2.7 5.8c3.7 7.9 11.4 15.7 19.5 19.8 6.4 3.2 7.2 3.4 17.2 3.4 9.4 0 11.2-.3 16.4-2.7 8.1-3.8 16.8-12.4 20.3-20.1l2.9-6.2v-114l-3.2-6.6c-4-8.1-12.1-16-20-19.7-4.7-2.1-7.6-2.7-14.8-2.9-5.5-.2-10.6.2-13 1zM248.7 28.4c-11.6 4.8-18.3 11.2-23.4 22.2l-2.8 5.9v113l3.3 6.4c4.5 8.5 11.6 15.5 20 19.4 6.2 3 7.5 3.2 17.2 3.2 10.3 0 10.7-.1 17.7-3.9 8.8-4.6 14.4-10.5 18.6-19.4l3.2-6.7v-113l-3.9-7.2c-4.6-8.8-10.5-14.4-19.4-18.6-5.7-2.7-8-3.2-15.7-3.5-7.7-.2-9.9.1-14.8 2.2zM150.7 133.4c-11.6 4.8-18.3 11.2-23.4 22.2l-2.8 5.9v113l3.3 6.4c4.5 8.5 11.6 15.5 20 19.4 6.2 3 7.5 3.2 17.2 3.2 10.3 0 10.7-.1 17.7-3.9 8.8-4.6 14.4-10.5 18.6-19.4l3.2-6.7v-113l-3.9-7.2c-4.6-8.8-10.5-14.4-19.4-18.6-5.7-2.7-8-3.2-15.7-3.5-7.7-.2-9.9.1-14.8 2.2zM250.3 218.4c-10.4 3.4-20.4 12.3-25.1 22.4-2.5 5.3-2.7 6.6-2.7 19.7 0 13.8.1 14.2 3.2 20.6 4 8 12 15.9 20 19.7 5.2 2.4 6.9 2.7 16.8 2.7 10.3 0 11.4-.2 17.5-3.1 8.2-3.9 15.2-10.9 19.3-19.4 3.1-6.3 3.2-6.7 3.2-20.5 0-13.6-.1-14.2-3.1-20.5-3.9-8.1-10.9-15.2-19.3-19.3-5.7-2.8-7.6-3.2-16-3.4-6.1-.2-11.1.2-13.8 1.1zM56 218.9c-10.6 3.5-20.1 11.5-25.3 21.5-3.2 6.1-3.2 6.2-3.2 21.1 0 14.9 0 15 3.2 21.1 4.1 7.8 10.9 14.6 18.7 18.7 5.8 3.1 6.6 3.2 17.6 3.2 10.8 0 11.9-.2 17.4-3 7.8-4 14.7-10.7 18.8-18.6l3.3-6.4v-15c0-14.9 0-15-3.2-21.1-4.1-7.9-10.9-14.7-18.7-18.6-5.5-2.9-7.1-3.2-16.1-3.5-5.5-.1-11.1.1-12.5.6z"/></svg>